<svg width="512" height="512" viewBox="0 0 512 512"
     xmlns="http://www.w3.org/2000/svg">

    <!-- Weißes abgerundetes Quadrat -->
    <rect
        x="32"
        y="32"
        width="448"
        height="448"
        rx="145"
        fill="white"/>

    <!-- Zahnrad -->
    <g
        transform="translate(20,-52)"
        fill="none"
        stroke="#4E7EFF"
        stroke-width="34"
        stroke-linecap="round"
        stroke-linejoin="round">

        <path d="
            M256 140
            L256 175
            C278 180 297 190 313 203
            L339 177
            L367 205
            L341 231
            C354 247 364 266 369 288
            L404 288
            L404 328
            L369 328
            C364 350 354 369 341 385
            L367 411
            L339 439
            L313 413
            C297 426 278 436 256 441
            L256 476
            L216 476
            L216 441
            C194 436 175 426 159 413
            L133 439
            L105 411
            L131 385
            C118 369 108 350 103 328
            L68 328
            L68 288
            L103 288
            C108 266 118 247 131 231
            L105 205
            L133 177
            L159 203
            C175 190 194 180 216 175
            L216 140
            Z"/>

        <!-- Innenkreis -->
        <circle
            cx="236"
            cy="308"
            r="55"/>

    </g>

</svg>